<?xml version="1.0" encoding="utf-8"?>
<!-- Generator: Adobe Illustrator 18.1.1, SVG Export Plug-In . SVG Version: 6.00 Build 0)  -->
<svg version="1.1" id="Layer_1" xmlns="http://www.w3.org/2000/svg" xmlns:xlink="http://www.w3.org/1999/xlink" x="0px" y="0px"
	 viewBox="0 0 246 242.5" enable-background="new 0 0 246 242.5" xml:space="preserve">
<g>
	<rect y="0" fill="#2B5F7E" width="246" height="242.5"/>
</g>
<g>
	<path fill="#1E4C63" d="M246,198.7v-87.2l-76.7-76.7c-3.9-4.1-9.7-5.2-14.7-3.4c-1.7-1.2-3.7-2-5.7-2.4c-2.1-4.7-6.9-8.1-12.4-8.1
		H136c-5.7,0-10.5,3.5-12.5,8.4c-4.5-4.5-11.5-5.1-16.7-1.8c-0.1-0.1-0.2-0.3-0.4-0.4l-0.4-0.4c-5.1-5.4-13.7-5.7-19.2-0.5l-0.4,0.4
		c-1.1,1-1.9,2.2-2.6,3.4c-4.9-2.1-10.7-1.3-14.8,2.5l-0.4,0.4c-2.2,2.1-3.5,4.8-4,7.5c-3.2,0.1-6.4,1.3-8.9,3.7l-0.4,0.4
		C50.8,48.8,50,55.7,52.9,61c-3.4,2.5-5.6,6.4-5.6,10.8l23,97.1c-1.5-0.6-3.1-0.9-4.8-0.9h-0.5c-3.1,0-6,1.1-8.4,2.9
		c-1.8-0.9-3.9-1.4-6-1.4h-0.5c-7.5,0-13.6,6.1-13.6,13.6v0.5c0,5.8,3.7,10.8,8.9,12.7c0.5,1.9,1.4,3.7,2.7,5.2h0
		c0.5,0.6,1.1,1.2,1.7,1.7l39.3,39.3H246V198.7z M75.2,71.8c0-0.5,0-1-0.1-1.5c0.1,0,0.1,0,0.2,0C75.3,70.8,75.2,71.3,75.2,71.8z
		 M130.5,71.8c0-0.9-0.1-1.8-0.3-2.7c0.2,0.1,0.3,0.2,0.5,0.3C130.6,70.1,130.5,70.9,130.5,71.8z"/>
	<path opacity="0.7" fill="#252525" d="M165.4,176.3l0.7-2.8l23.3-98.6c0-2.3-0.6-4.5-1.6-6.4c2.7-5,2-11.4-2.1-15.7l-0.4-0.4
		c-2.4-2.5-5.6-3.9-8.8-4.2c0.2-3.6-1-7.2-3.7-10l-0.4-0.4c-3.9-4.1-9.7-5.2-14.7-3.4c-1.7-1.2-3.7-2-5.7-2.4
		c-2.1-4.7-6.9-8.1-12.4-8.1h-0.5c-5.7,0-10.5,3.5-12.5,8.4c-4.5-4.5-11.5-5.1-16.7-1.8c-0.1-0.1-0.2-0.3-0.4-0.4l-0.4-0.4
		c-5.1-5.4-13.7-5.7-19.2-0.5l-0.4,0.4c-1.1,1-1.9,2.2-2.6,3.4c-4.9-2.1-10.7-1.3-14.8,2.5l-0.4,0.4c-2.2,2.1-3.5,4.8-4,7.5
		c-3.2,0.1-6.4,1.3-8.9,3.7l-0.4,0.4C54,52,53.1,58.8,56.1,64.1c-3.4,2.5-5.6,6.4-5.6,10.8l23,97.1c-1.5-0.6-3.1-0.9-4.8-0.9h-0.5
		c-3.1,0-6,1.1-8.4,2.9c-1.8-0.9-3.9-1.4-6-1.4h-0.5c-7.5,0-13.6,6.1-13.6,13.6v0.5c0,5.8,3.7,10.8,8.9,12.7
		c1.5,5.8,6.8,10.1,13.1,10.1h0.5c4.8,0,9-2.5,11.4-6.3c2.4,3.8,6.6,6.3,11.4,6.3h0.5c7.5,0,13.6-6.1,13.6-13.6v-0.5
		c0-0.6-0.1-1.2-0.1-1.8h1.4h5.4h17.9h1.4h8.6h5.2h5.1h9.2h8.1h0.3v-1.3l0.7-3L165.4,176.3z"/>
	<g>
		<path fill="#FFD528" d="M105.5,46.7c-5.4,5.1-14,4.9-19.2-0.5l-0.4-0.4c-5.1-5.4-4.9-14,0.5-19.2l0.4-0.4c5.4-5.1,14-4.9,19.2,0.5
			l0.4,0.4c5.1,5.4,4.9,14-0.5,19.2L105.5,46.7z"/>
	</g>
	<g>
		<path fill="#F9EEC4" d="M123.3,49.7c-5.4,5.1-14,4.9-19.2-0.5l-0.4-0.4c-5.1-5.4-4.9-14,0.5-19.2l0.4-0.4c5.4-5.1,14-4.9,19.2,0.5
			l0.4,0.4c5.1,5.4,4.9,14-0.5,19.2L123.3,49.7z"/>
	</g>
	<g>
		<path fill="#F9EEC4" d="M87.7,53c-5.4,5.1-14,4.9-19.2-0.5l-0.4-0.4c-5.1-5.4-4.9-14,0.5-19.2l0.4-0.4c5.4-5.1,14-4.9,19.2,0.5
			l0.4,0.4c5.1,5.4,4.9,14-0.5,19.2L87.7,53z"/>
	</g>
	<g>
		<path fill="#FFEA95" d="M150.1,35.1c0,7.5-6.1,13.6-13.6,13.6H136c-7.5,0-13.6-6.1-13.6-13.6v-0.5c0-7.5,6.1-13.6,13.6-13.6h0.5
			c7.5,0,13.6,6.1,13.6,13.6V35.1z"/>
	</g>
	<g>
		<path fill="#F9EEC4" d="M181.5,69.2c-5.4,5.1-14,4.9-19.2-0.5l-0.4-0.4c-5.1-5.4-4.9-14,0.5-19.2l0.4-0.4c5.4-5.1,14-4.9,19.2,0.5
			l0.4,0.4c5.1,5.4,4.9,14-0.5,19.2L181.5,69.2z"/>
	</g>
	<g>
		<path fill="#FFD528" d="M74.4,64.6c-5.4,5.1-14,4.9-19.2-0.5l-0.4-0.4c-5.1-5.4-4.9-14,0.5-19.2l0.4-0.4c5.4-5.1,14-4.9,19.2,0.5
			l0.4,0.4c5.1,5.4,4.9,14-0.5,19.2L74.4,64.6z"/>
	</g>
	<g>
		<path fill="#FFD528" d="M168.7,54.7c-5.4,5.1-14,4.9-19.2-0.5l-0.4-0.4c-5.1-5.4-4.9-14,0.5-19.2l0.4-0.4c5.4-5.1,14-4.9,19.2,0.5
			l0.4,0.4c5.1,5.4,4.9,14-0.5,19.2L168.7,54.7z"/>
	</g>
	<g>
		<path fill="#FFDF5B" d="M139.8,57.8c-5.4,5.1-14,4.9-19.2-0.5l-0.4-0.4c-5.1-5.4-4.9-14,0.5-19.2l0.4-0.4c5.4-5.1,14-4.9,19.2,0.5
			l0.4,0.4c5.1,5.4,4.9,14-0.5,19.2L139.8,57.8z"/>
	</g>
	<g>
		<path fill="#FFEA95" d="M133.5,53.5c0,7.5-6.1,13.6-13.6,13.6h-0.5c-7.5,0-13.6-6.1-13.6-13.6V53c0-7.5,6.1-13.6,13.6-13.6h0.5
			c7.5,0,13.6,6.1,13.6,13.6V53.5z"/>
	</g>
	<g>
		<path fill="#F9EEC4" d="M156,53c-5.4,5.1-14,4.9-19.2-0.5l-0.4-0.4c-5.1-5.4-4.9-14,0.5-19.2l0.4-0.4c5.4-5.1,14-4.9,19.2,0.5
			l0.4,0.4c5.1,5.4,4.9,14-0.5,19.2L156,53z"/>
	</g>
	<g>
		<path fill="#FFDF5B" d="M100,57.8c-5.4,5.1-14,4.9-19.2-0.5l-0.4-0.4c-5.1-5.4-4.9-14,0.5-19.2l0.4-0.4c5.4-5.1,14-4.9,19.2,0.5
			l0.4,0.4c5.1,5.4,4.9,14-0.5,19.2L100,57.8z"/>
	</g>
	<g>
		<path fill="#FFEA95" d="M90.7,56.8c0,7.5-6.1,13.6-13.6,13.6h-0.5c-7.5,0-13.6-6.1-13.6-13.6v-0.5c0-7.5,6.1-13.6,13.6-13.6h0.5
			c7.5,0,13.6,6.1,13.6,13.6V56.8z"/>
	</g>
	<g>
		<path fill="#FFEA95" d="M172.2,56.8c0,7.5-6.1,13.6-13.6,13.6h-0.5c-7.5,0-13.6-6.1-13.6-13.6v-0.5c0-7.5,6.1-13.6,13.6-13.6h0.5
			c7.5,0,13.6,6.1,13.6,13.6V56.8z"/>
	</g>
	<g>
		<path fill="#FFD528" d="M111,66.8c-5.4,5.1-14,4.9-19.2-0.5l-0.4-0.4c-5.1-5.4-4.9-14,0.5-19.2l0.4-0.4c5.4-5.1,14-4.9,19.2,0.5
			l0.4,0.4c5.1,5.4,4.9,14-0.5,19.2L111,66.8z"/>
	</g>
	<g>
		<path fill="#FFD528" d="M145.6,66.8c-5.4,5.1-14,4.9-19.2-0.5l-0.4-0.4c-5.1-5.4-4.9-14,0.5-19.2l0.4-0.4c5.4-5.1,14-4.9,19.2,0.5
			l0.4,0.4c5.1,5.4,4.9,14-0.5,19.2L145.6,66.8z"/>
	</g>
	<g>
		<path fill="#2B5F7E" d="M92.7,190.4L75.2,71.8c0-7.5,6.2-13.6,13.9-13.6l0,0c7.7,0,13.9,6.1,13.9,13.6l17.4,118.6H92.7z"/>
	</g>
	<g>
		<path fill="#F2F2F2" d="M75.4,190.4L47.4,71.8c0-7.5,6.2-13.6,13.9-13.6l0,0c7.7,0,13.9,6.1,13.9,13.6l17.4,118.6H75.4z"/>
	</g>
	<g>
		<path fill="#F2F2F2" d="M102.7,190.4V71.8c0-7.5,6.2-13.6,13.9-13.6l0,0c7.7,0,13.9,6.1,13.9,13.6v118.6H102.7z"/>
	</g>
	<g>
		<path fill="#2B5F7E" d="M130.5,190.4V71.8c0-7.5,6.2-13.6,13.9-13.6l0,0c7.7,0,13.9,6.1,13.9,13.6v118.6H130.5z"/>
	</g>
	<g>
		<path fill="#F2F2F2" d="M140.9,190.4l17.4-118.6c0-7.5,6.2-13.6,13.9-13.6l0,0c7.7,0,13.9,6.1,13.9,13.6l-28.1,118.6H140.9z"/>
	</g>
	<g>
		<polygon fill="#1E4C63" points="162.2,173.1 71.3,173.1 75.4,190.4 83.5,190.4 92.7,190.4 97.3,190.4 102.7,190.4 120.5,190.4 
			122,190.4 130.5,190.4 135.8,190.4 140.9,190.4 150,190.4 158.1,190.4 158.4,190.4 158.4,189.2 		"/>
	</g>
	<g>
		<path fill="#FFD528" d="M64.2,183.6c0,7.5-6.1,13.6-13.6,13.6h-0.5c-7.5,0-13.6-6.1-13.6-13.6v-0.5c0-7.5,6.1-13.6,13.6-13.6h0.5
			c7.5,0,13.6,6.1,13.6,13.6V183.6z"/>
	</g>
	<g>
		<polygon fill="#FFFFFF" points="163,170 70.6,170 71.3,173.1 162.2,173.1 		"/>
	</g>
	<g>
		<path fill="#F9EEC4" d="M79.1,182.1c0,7.5-6.1,13.6-13.6,13.6h-0.5c-7.5,0-13.6-6.1-13.6-13.6v-0.5c0-7.5,6.1-13.6,13.6-13.6h0.5
			c7.5,0,13.6,6.1,13.6,13.6V182.1z"/>
	</g>
	<g>
		<path fill="#FFD528" d="M96,192.8c0,7.5-6.1,13.6-13.6,13.6H82c-7.5,0-13.6-6.1-13.6-13.6v-0.5c0-7.5,6.1-13.6,13.6-13.6h0.5
			c7.5,0,13.6,6.1,13.6,13.6V192.8z"/>
	</g>
	<g>
		<path fill="#F8E075" d="M72.6,192.8c0,7.5-6.1,13.6-13.6,13.6h-0.5c-7.5,0-13.6-6.1-13.6-13.6v-0.5c0-7.5,6.1-13.6,13.6-13.6h0.5
			c7.5,0,13.6,6.1,13.6,13.6V192.8z"/>
	</g>
</g>
</svg>
