<?xml version="1.0" encoding="utf-8"?>
<!-- Generator: Adobe Illustrator 19.0.0, SVG Export Plug-In . SVG Version: 6.00 Build 0)  -->
<svg version="1.1" id="Layer_1" xmlns="http://www.w3.org/2000/svg" xmlns:xlink="http://www.w3.org/1999/xlink" x="0px" y="0px"
	 viewBox="0 0 612 792" style="enable-background:new 0 0 612 792;" xml:space="preserve">
<style type="text/css">
	.st0{fill:#010101;}
</style>
<g>
	<g id="XMLID_50_">
		<path id="XMLID_51_" class="st0" d="M328,373h-43c-1.7,0-3,1.3-3,3v40c0,1.7,1.3,3,3,3h43c1.7,0,3-1.3,3-3v-40
			C331,374.3,329.7,373,328,373z M329,416c0,0.6-0.4,1-1,1h-43c-0.6,0-1-0.4-1-1v-31h45V416z M329,383h-45v-7c0-0.6,0.4-1,1-1h43
			c0.6,0,1,0.4,1,1V383z M305.2,409h-9.3c0-0.5,0.1-1.1,0.4-1.5c0.3-0.5,0.6-0.9,1.1-1.4c0.5-0.5,1-0.9,1.5-1.3
			c0.6-0.4,1.2-0.9,1.8-1.4c0.6-0.5,1.2-1,1.8-1.5c0.6-0.5,1.1-1.1,1.5-1.6c0.5-0.6,0.8-1.2,1.1-1.9c0.3-0.7,0.4-1.4,0.4-2.3
			c0-1-0.1-1.8-0.4-2.5c-0.3-0.7-0.7-1.3-1.2-1.8c-0.5-0.5-1.1-0.8-1.9-1.1c-0.7-0.2-1.5-0.4-2.3-0.4c-1.1,0-2,0.2-2.9,0.5
			c-0.8,0.3-1.6,0.8-2.2,1.3l1.2,1.5c0.3-0.2,0.5-0.4,0.8-0.6c0.3-0.2,0.6-0.3,0.9-0.4c0.3-0.1,0.6-0.2,1-0.3
			c0.3-0.1,0.6-0.1,0.9-0.1c1.4,0,2.3,0.3,3,1c0.6,0.7,0.9,1.7,0.9,3.1c0,0.7-0.1,1.4-0.4,1.9c-0.3,0.6-0.6,1.1-1.1,1.7
			c-0.5,0.5-1,1-1.6,1.5c-0.6,0.5-1.2,0.9-1.8,1.4c-0.6,0.5-1.2,0.9-1.8,1.4c-0.6,0.5-1.1,1-1.6,1.6c-0.5,0.6-0.8,1.2-1.1,1.8
			c-0.3,0.6-0.4,1.3-0.4,2.1v1.2h11.7V409z M313.7,409.2h-3.6v1.8h9.2v-1.8h-3.4v-18.3h-1.8L310,393l0,2.1l3.8-2V409.2z"/>
	</g>
</g>
</svg>
