<?xml version="1.0" encoding="utf-8"?>
<!-- Generator: Adobe Illustrator 19.0.0, SVG Export Plug-In . SVG Version: 6.00 Build 0)  -->
<svg version="1.1" id="Layer_1" xmlns="http://www.w3.org/2000/svg" xmlns:xlink="http://www.w3.org/1999/xlink" x="0px" y="0px"
	 viewBox="0 0 612 792" style="enable-background:new 0 0 612 792;" xml:space="preserve">
<style type="text/css">
	.st0{fill:#010101;}
</style>
<path class="st0" d="M306.2,419l-1.9-1.5c-11.3-8.7-18.1-13.9-22-20.7c-2.9-5-3.6-10-2.2-14.3c1.2-3.6,3.8-6.5,7.5-8.2
	c1.9-0.9,3.9-1.3,6.1-1.3c5.1,0,9.9,2.5,12.5,6.5c2.6-3.9,7.4-6.5,12.5-6.5c2.1,0,4.2,0.4,6.1,1.3c3.6,1.7,6.3,4.6,7.5,8.2
	c1.4,4.3,0.6,9.3-2.2,14.3c-3.9,6.8-10.7,12.1-22,20.7L306.2,419z M293.7,375c-1.9,0-3.6,0.4-5.2,1.1c-3.1,1.4-5.4,3.9-6.4,7
	c-1.2,3.8-0.5,8.2,2.1,12.7c3.7,6.5,10.4,11.6,21.5,20.1l0.7,0.5l0.6-0.5c11.1-8.5,17.8-13.7,21.5-20.2c2.6-4.5,3.3-8.9,2.1-12.7
	c-1-3.1-3.3-5.6-6.4-7c-1.6-0.7-3.4-1.1-5.2-1.1c-5,0-9.7,2.8-11.6,6.9l-0.9,2l-0.9-2C303.4,377.8,298.7,375,293.7,375z"/>
</svg>
