<?xml version="1.0" encoding="utf-8"?>
<!-- Generator: Adobe Illustrator 19.0.0, SVG Export Plug-In . SVG Version: 6.00 Build 0)  -->
<svg version="1.1" id="Layer_1" xmlns="http://www.w3.org/2000/svg" xmlns:xlink="http://www.w3.org/1999/xlink" x="0px" y="0px"
	 viewBox="0 0 612 792" style="enable-background:new 0 0 612 792;" xml:space="preserve">
<style type="text/css">
	.st0{fill:#010101;}
</style>
<path class="st0" d="M320.1,418.7c-0.2,0-0.3,0-0.5-0.1l-13.7-7.2l-13.7,7.2c-0.3,0.2-0.7,0.2-1.1-0.1c-0.3-0.2-0.5-0.6-0.4-1
	l2.6-15.3l-11.1-10.9c-0.3-0.3-0.4-0.7-0.3-1c0.1-0.4,0.4-0.6,0.8-0.7l15.3-2.2l6.9-13.9c0.3-0.7,1.5-0.7,1.8,0l6.9,13.9l15.3,2.2
	c0.4,0.1,0.7,0.3,0.8,0.7c0.1,0.4,0,0.8-0.3,1l-11.1,10.9l2.6,15.3c0.1,0.4-0.1,0.8-0.4,1C320.5,418.6,320.3,418.7,320.1,418.7z
	 M305.9,409.2c0.2,0,0.3,0,0.5,0.1l12.4,6.5l-2.4-13.8c-0.1-0.3,0.1-0.7,0.3-0.9l10-9.8l-13.8-2c-0.3,0-0.6-0.3-0.8-0.5l-6.2-12.6
	l-6.2,12.6c-0.1,0.3-0.4,0.5-0.8,0.5l-13.8,2l10,9.8c0.2,0.2,0.3,0.6,0.3,0.9l-2.4,13.8l12.4-6.5
	C305.6,409.2,305.8,409.2,305.9,409.2z"/>
</svg>
