<?xml version="1.0" encoding="utf-8"?>
<!-- Generator: Adobe Illustrator 19.0.0, SVG Export Plug-In . SVG Version: 6.00 Build 0)  -->
<svg version="1.1" id="Layer_1" xmlns="http://www.w3.org/2000/svg" xmlns:xlink="http://www.w3.org/1999/xlink" x="0px" y="0px"
	 viewBox="0 0 612 792" style="enable-background:new 0 0 612 792;" xml:space="preserve">
<style type="text/css">
	.st0{fill:#010101;}
</style>
<g>
	<g id="XMLID_68_">
		<path id="XMLID_69_" class="st0" d="M316,402.1l2.5,7.9h2l2.4-7.8l0,0l0.1-0.3l0,0V369c0-0.6-0.4-1-1-1h-5c-0.6,0-1,0.4-1,1
			L316,402.1l0.3-0.1L316,402.1z M318,370h3v1h-3V370z M318,373h3v28.7l-1.5,4.7l-1.5-4.8V373z M327,376v2c1.7,0,3,1.3,3,3v38
			c0,1.7-1.3,3-3,3h-42c-1.7,0-3-1.3-3-3v-38c0-1.7,1.3-3,3-3h27v-2h-27c-2.8,0-5,2.2-5,5v38c0,2.8,2.2,5,5,5h42c2.8,0,5-2.2,5-5
			v-38C332,378.2,329.8,376,327,376z M288,389h15c0.6,0,1-0.4,1-1c0-0.6-0.4-1-1-1h-15c-0.6,0-1,0.4-1,1
			C287,388.6,287.4,389,288,389z M288,397h22c0.6,0,1-0.4,1-1c0-0.6-0.4-1-1-1h-22c-0.6,0-1,0.4-1,1C287,396.6,287.4,397,288,397z
			 M311,403h-23c-0.6,0-1,0.4-1,1c0,0.6,0.4,1,1,1h23c0.6,0,1-0.4,1-1C312,403.4,311.6,403,311,403z M311,411h-23c-0.6,0-1,0.4-1,1
			c0,0.6,0.4,1,1,1h23c0.6,0,1-0.4,1-1C312,411.4,311.6,411,311,411z"/>
	</g>
</g>
</svg>
