<?xml version="1.0" encoding="utf-8"?>
<!-- Generator: Adobe Illustrator 19.0.0, SVG Export Plug-In . SVG Version: 6.00 Build 0)  -->
<svg version="1.1" id="Layer_1" xmlns="http://www.w3.org/2000/svg" xmlns:xlink="http://www.w3.org/1999/xlink" x="0px" y="0px"
	 viewBox="0 0 612 792" style="enable-background:new 0 0 612 792;" xml:space="preserve">
<style type="text/css">
	.st0{fill:#010101;}
</style>
<g>
	<g id="XMLID_158_">
		<path id="XMLID_159_" class="st0" d="M330,377h-48c-1.7,0-3,1.3-3,3v32c0,1.7,1.3,3,3,3h48c1.7,0,3-1.3,3-3v-1v-2v-2v-2v-2v-2v-2
			v-2v-2v-2v-2v-2v-2v-2v-2v-2v-1C333,378.3,331.7,377,330,377z M284,413h-2c-0.6,0-1-0.4-1-1v-1h3V413z M284,409h-3v-2h3V409z
			 M284,405h-3v-2h3V405z M284,401h-3v-2h3V401z M284,397h-3v-2h3V397z M284,393h-3v-2h3V393z M284,389h-3v-2h3V389z M284,385h-3v-2
			h3V385z M284,381h-3v-1c0-0.6,0.4-1,1-1h2V381z M326,413h-40v-34h40V413z M331,412c0,0.6-0.4,1-1,1h-2v-2h3V412z M331,409h-3v-2h3
			V409z M331,405h-3v-2h3V405z M331,401h-3v-2h3V401z M331,397h-3v-2h3V397z M331,393h-3v-2h3V393z M331,389h-3v-2h3V389z M331,385
			h-3v-2h3V385z M331,381h-3v-2h2c0.6,0,1,0.4,1,1V381z M317,395.5L299,385l0,21L317,395.5z M313,395.5l-12,7l0-14L313,395.5z"/>
	</g>
</g>
</svg>
